<svg width="181" height="192" viewBox="0 0 181 192" fill="none" xmlns="http://www.w3.org/2000/svg">
<path d="M97.681 41.3887C97.4358 36.8084 92.7548 37.5876 88.1875 37.5876C91.5613 38.4862 94.753 39.7364 97.681 41.3887Z" fill="black"/>
<path d="M48.8558 29.9099C31.125 29.9099 22.9638 52.3524 37.1379 63.6398C41.9698 50.7377 51.5887 41.4736 64.1987 37.817C60.7492 33.0482 55.1761 29.9099 48.8558 29.9099Z" fill="#FFE600"/>
<path d="M12.2268 60.1276C12.9494 62.4463 13.8856 64.6707 14.9978 66.7781L9.17347 72.6057C7.60936 74.1698 7.60936 76.7086 9.17347 78.2759L19.4397 88.5454C20.1874 89.2931 21.2118 89.7138 22.2795 89.7138C23.3354 89.7138 24.3529 89.2931 25.1136 88.5454L30.9314 82.7178C31.8045 83.1798 32.7723 83.463 33.6765 83.8616C33.6765 83.7952 33.67 83.7264 33.67 83.6601C33.67 78.8978 34.217 74.4053 35.1909 70.1867C28.1665 65.6659 23.4795 57.8187 23.4795 48.8592C23.4795 34.864 34.864 23.4762 48.856 23.4762C58.3305 23.4762 66.5107 28.7507 70.8773 36.4568C75.5393 35.8787 79.9185 35.8787 85.1898 36.8747C84.5117 34.8235 83.7139 32.816 82.7146 30.9343L88.5389 25.1038C89.2987 24.3529 89.7195 23.3318 89.7195 22.2702C89.7195 21.2081 89.2987 20.1874 88.5389 19.4365L78.2783 9.17347C77.4934 8.38818 76.469 7.99857 75.445 7.99857C74.4206 7.99857 73.3967 8.38818 72.6174 9.17347L66.7745 15.0039C64.6638 13.8856 62.4459 12.9494 60.1215 12.2426V4.00535C60.1215 1.79391 58.3369 0 56.119 0H41.5994C39.3941 0 37.5904 1.79391 37.5904 4.00535V12.2422C35.2722 12.949 33.0539 13.8852 30.9367 15.0035L25.1136 9.17954C24.3279 8.39425 23.3039 8.00464 22.2795 8.00464C21.2555 8.00464 20.2254 8.39425 19.4462 9.1763L9.17347 19.4393C8.4258 20.1934 8.00504 21.211 8.00504 22.2762C8.00504 23.3411 8.4258 24.359 9.17347 25.1099L14.9978 30.9371C13.8852 33.0482 12.9494 35.2694 12.2398 37.5876H4.00899C1.79108 37.5876 0 39.3843 0 41.599V56.119C0 58.3272 1.79108 60.1276 4.00899 60.1276H12.2268Z" fill="#FFE600"/>
<path d="M138.005 137.822C144.426 134.3 148.837 127.559 148.837 119.736C148.837 108.32 139.545 99.0346 128.129 99.0346C124.114 99.0346 120.394 100.235 117.215 102.22C115.312 109.797 112.314 117.045 108.394 123.34C119.508 125.429 129.705 130.49 138.005 137.822Z" fill="#FFE600"/>
<path d="M180.854 111.902C180.854 109.512 178.913 107.576 176.531 107.576H167.648C166.881 105.072 165.863 102.672 164.657 100.395L170.946 94.1059C171.763 93.2951 172.215 92.1959 172.215 91.0493C172.215 89.9023 171.762 88.8027 170.946 87.9895L159.875 76.9157C159.033 76.0701 157.921 75.6461 156.816 75.6461C155.71 75.6461 154.604 76.0701 153.763 76.9157L147.461 83.2077C145.186 82.0013 142.792 80.9902 140.279 80.2264V71.3426C140.279 68.9551 138.35 67.0196 135.963 67.0196H120.3C119.25 67.0196 118.327 67.4404 117.573 68.0626C118.892 72.8751 119.615 78.0934 119.615 83.66C119.615 87.1941 119.339 90.7823 118.823 94.3503C121.738 93.2757 124.842 92.6009 128.128 92.6009C143.094 92.6009 155.27 104.774 155.27 119.736C155.27 129.299 150.276 137.681 142.78 142.515C148.234 148.497 152.569 155.593 155.39 163.544C155.854 163.704 156.338 163.82 156.822 163.82C157.928 163.82 159.034 163.4 159.882 162.554L170.959 151.48C171.77 150.67 172.216 149.57 172.216 148.424C172.216 147.277 171.77 146.178 170.959 145.364L164.657 139.072C165.864 136.798 166.881 134.397 167.648 131.891H176.532C177.675 131.891 178.787 131.438 179.591 130.621C180.402 129.813 180.861 128.711 180.861 127.564L180.854 111.902Z" fill="#FFE600"/>
<path d="M146.568 167.459C139.852 147.696 122.103 134.103 101.614 132.253C94.7533 139.518 86.2587 144.128 76.639 144.128C67.0265 144.128 58.5255 139.519 51.6711 132.253C31.1701 134.103 13.4208 147.696 6.70391 167.462L2.99107 178.391C1.92904 181.536 2.4376 185.001 4.37311 187.699C6.30823 190.398 9.42471 192 12.7419 192H140.53C143.854 192 146.97 190.398 148.906 187.699C150.834 185.001 151.35 181.536 150.281 178.391L146.568 167.459Z" fill="#FF0000"/>
<path d="M43.3203 83.6601C43.3203 108.173 58.2425 134.477 76.6384 134.477C95.0415 134.477 109.963 108.173 109.963 83.6601C109.963 32.8472 43.3203 32.7464 43.3203 83.6601Z" fill="#FF0000"/>
</svg>
