<svg width="46" height="46" viewBox="0 0 46 46" fill="none" xmlns="http://www.w3.org/2000/svg">
<path d="M22.625 43.625C18.2025 43.625 15.02 43.6228 12.5387 43.3822C10.0859 43.1444 8.51688 42.6875 7.26469 41.9006C5.83352 41.0015 4.62334 39.7914 3.72406 38.3603C2.9375 37.1081 2.48031 35.5391 2.24281 33.0863C2.00219 30.605 2 27.4225 2 23C2 18.5775 2.00219 15.395 2.24281 12.9137C2.48031 10.4609 2.9375 8.89188 3.72406 7.63969C4.6233 6.20848 5.83348 4.9983 7.26469 4.09906C8.51688 3.3125 10.0859 2.85531 12.5387 2.61781C15.0197 2.37719 18.2022 2.375 22.625 2.375C27.0475 2.375 30.23 2.37719 32.7113 2.61781C35.1641 2.85531 36.7331 3.3125 37.9853 4.09906C39.4164 4.99834 40.6265 6.20852 41.5256 7.63969C42.3125 8.89188 42.7694 10.4609 43.0072 12.9137C43.2478 15.395 43.25 18.5775 43.25 23C43.25 27.4225 43.2478 30.605 43.0072 33.0863C42.7694 35.5391 42.3125 37.1081 41.5256 38.3603C40.6264 39.7914 39.4164 41.0014 37.9853 41.9006C36.7331 42.6875 35.1641 43.1444 32.7113 43.3822C30.23 43.6228 27.0475 43.625 22.625 43.625Z" stroke="#FF0000" stroke-width="3.75"/>
<path d="M22.625 32.375C27.8027 32.375 32 28.1777 32 23C32 17.8223 27.8027 13.625 22.625 13.625C17.4473 13.625 13.25 17.8223 13.25 23C13.25 28.1777 17.4473 32.375 22.625 32.375Z" stroke="#FF0000" stroke-width="3.75"/>
</svg>
