<svg width="52" height="41" viewBox="0 0 52 41" fill="none" xmlns="http://www.w3.org/2000/svg">
<path fill-rule="evenodd" clip-rule="evenodd" d="M16.3683 41C35.7078 41 46.2859 25.2239 46.2859 11.5446C46.2859 11.0956 46.2859 10.6498 46.2552 10.2058C48.3129 8.7425 50.0887 6.92565 51.5007 4.84677C49.5839 5.68438 47.5467 6.23369 45.4633 6.47588C47.6569 5.18162 49.2994 3.14826 50.0861 0.748965C48.0207 1.95492 45.7631 2.80603 43.4082 3.2627C39.426 -0.905183 32.766 -1.10712 28.5301 2.81351C25.801 5.34147 24.6402 9.11063 25.4884 12.7058C17.0346 12.287 9.15737 8.35634 3.81705 1.89009C1.02645 6.62055 2.45378 12.6699 7.07403 15.7075C5.40069 15.6596 3.76323 15.216 2.30003 14.4137V14.5451C2.30259 19.4724 5.8312 23.715 10.7359 24.6914C9.18811 25.1077 7.56347 25.168 5.99007 24.8678C7.36615 29.0861 11.315 31.9754 15.8123 32.0587C12.0889 34.9398 7.48916 36.5043 2.7536 36.4993C1.91821 36.4968 1.08282 36.4488 0.25 36.3504C5.05987 39.388 10.6539 41.0001 16.3683 40.9925" fill="#FF0000"/>
</svg>
