<svg width="24" height="24" viewBox="0 0 24 24" fill="none" xmlns="http://www.w3.org/2000/svg">
<path d="M15.8212 12L23.1955 4.66667C24.2682 3.6 24.2682 2 23.1955 0.933333C22.7933 0.4 22.1229 0 21.4525 0C20.7821 0 20.1117 0.266667 19.5754 0.8L12.067 8.26667L4.69274 0.933333C3.62011 -0.133334 1.87709 -0.133334 0.938547 0.933333C0.402234 1.33333 0 2 0 2.8C0 3.6 0.268156 4.13333 0.804469 4.66667L8.17877 12L0.804469 19.3333C0.402235 19.8667 0 20.5333 0 21.3333C0 22 0.268156 22.6667 0.804469 23.2C1.34078 23.7333 2.01117 24 2.68156 24C3.35196 24 4.02235 23.7333 4.55866 23.2L11.933 15.8667L19.3073 23.2C20.3799 24.2667 22.1229 24.2667 23.0615 23.2C24.1341 22.1333 24.1341 20.4 23.0615 19.4667L15.8212 12Z" fill="white"/>
</svg>
